<?xml version="1.0" encoding="UTF-8" standalone="no"?>
<!-- Created with Inkscape (http://www.inkscape.org/) -->

<svg
   xmlns:dc="http://purl.org/dc/elements/1.1/"
   xmlns:cc="http://creativecommons.org/ns#"
   xmlns:rdf="http://www.w3.org/1999/02/22-rdf-syntax-ns#"
   xmlns:svg="http://www.w3.org/2000/svg"
   xmlns="http://www.w3.org/2000/svg"
   xmlns:sodipodi="http://sodipodi.sourceforge.net/DTD/sodipodi-0.dtd"
   xmlns:inkscape="http://www.inkscape.org/namespaces/inkscape"
   width="800"
   height="800"
   viewBox="0 0 799.99999 799.99999"
   id="svg2"
   version="1.1"
   inkscape:version="0.91 r13725"
   sodipodi:docname="wphc-logo.svg">
  <defs
     id="defs4" />
  <sodipodi:namedview
     id="base"
     pagecolor="#ffffff"
     bordercolor="#666666"
     borderopacity="1.0"
     inkscape:pageopacity="0.0"
     inkscape:pageshadow="2"
     inkscape:zoom="0.35"
     inkscape:cx="-593.57142"
     inkscape:cy="555.31752"
     inkscape:document-units="px"
     inkscape:current-layer="layer1"
     showgrid="false"
     inkscape:window-width="2560"
     inkscape:window-height="1056"
     inkscape:window-x="1600"
     inkscape:window-y="24"
     inkscape:window-maximized="1"
     units="px" />
  <metadata
     id="metadata7">
    <rdf:RDF>
      <cc:Work
         rdf:about="">
        <dc:format>image/svg+xml</dc:format>
        <dc:type
           rdf:resource="http://purl.org/dc/dcmitype/StillImage" />
        <dc:title />
      </cc:Work>
    </rdf:RDF>
  </metadata>
  <g
     inkscape:label="Layer 1"
     inkscape:groupmode="layer"
     id="layer1"
     transform="translate(0,-252.36235)">
    <g
       id="g3781"
       transform="translate(1380,942.85728)"
       inkscape:export-xdpi="90"
       inkscape:export-ydpi="90">
      <rect
         y="-690.49493"
         x="-1380"
         height="800"
         width="800"
         id="rect5291"
         style="opacity:1;fill:none;fill-opacity:1;stroke:#ffffff;stroke-width:0;stroke-miterlimit:4;stroke-dasharray:none" />
      <path
         style="fill:#000000;fill-opacity:1;stroke:none;stroke-width:30;stroke-miterlimit:4;stroke-dasharray:none"
         inkscape:connector-curvature="0"
         d="m -603.9143,-332.51221 c -1.1948,-10.63887 -13.6014,-18.64257 -24.332,-18.64257 -34.6794,0 -65.4568,-20.35461 -78.3675,-51.85876 -13.1758,-32.26033 -4.6746,-69.87608 21.1632,-93.57952 8.1412,-7.44062 9.1298,-19.89957 2.3111,-28.54814 -17.7555,-22.54133 -37.9267,-42.90573 -59.9574,-60.55321 -8.6224,-6.91356 -21.2876,-5.95118 -28.7642,2.32753 -22.5609,24.98334 -63.0836,34.26696 -94.3947,21.20239 -32.5777,-13.70613 -53.1354,-46.72591 -51.1156,-82.16809 0.6612,-11.13972 -7.4799,-20.81942 -18.5804,-22.11243 -28.2732,-3.2735 -56.7952,-3.36846 -85.1502,-0.22265 -10.9597,1.21124 -19.1009,10.66178 -18.7342,21.6608 1.2242,35.09514 -19.569,67.53222 -51.8293,80.74739 -30.9379,12.63898 -71.179,3.42401 -93.6876,-21.33998 -7.4406,-8.15753 -19.8832,-9.15923 -28.5612,-2.39288 -22.6788,17.798 -43.3052,38.1755 -61.2275,60.5335 -6.9825,8.6911 -5.9513,21.28755 2.2586,28.75439 26.3484,23.86055 34.8465,61.80039 21.1666,94.43715 -13.0646,31.1146 -45.3708,51.15496 -82.3482,51.15496 -12.0039,-0.38627 -20.5411,7.67635 -21.867,18.59019 -3.3291,28.42379 -3.3651,57.40079 -0.1636,86.06027 1.1948,10.68469 13.9713,18.61966 24.8229,18.61966 32.9609,-0.83802 64.5894,19.55588 77.8765,51.85548 13.225,32.26032 4.7139,69.85972 -21.1664,93.59586 -8.0986,7.44065 -9.1299,19.87013 -2.2948,28.50889 17.5755,22.40055 37.7632,42.77808 59.8593,60.57608 8.678,6.98565 21.2908,6.00687 28.8133,-2.28163 22.646,-25.04225 63.1588,-34.30953 94.3487,-21.21881 32.6696,13.67013 53.2206,46.68663 51.2139,82.13862 -0.6613,11.13971 7.5062,20.8489 18.564,22.11248 14.4689,1.69239 29.013,2.5304 43.6063,2.5304 13.8469,0 27.6938,-0.75617 41.5407,-2.29798 10.976,-1.2112 19.1008,-10.67161 18.731,-21.67384 -1.2669,-35.07881 19.5722,-67.51916 51.7899,-80.70809 31.1474,-12.72082 71.2052,-3.41099 93.7334,21.31701 7.4767,8.14119 19.8407,9.12979 28.5613,2.38966 22.6362,-17.75218 43.2232,-38.11988 61.2209,-60.5368 6.989,-8.67477 5.9971,-21.28756 -2.2521,-28.7675 -26.3451,-23.84416 -34.8857,-61.80038 -21.2058,-94.40442 12.8583,-30.69558 43.9664,-51.30553 77.4183,-51.30553 l 4.681,0.12439 c 10.8616,0.88058 20.8457,-7.48322 22.1551,-18.56401 3.3422,-28.44997 3.3783,-57.39424 0.1637,-86.06026 z m -376.0856,260.21036 c -120.5073,0 -218.1917,-97.68445 -218.1917,-218.18846 0,-120.50402 97.6844,-218.18844 218.1917,-218.18844 120.5007,0 218.1885,97.68442 218.1885,218.18844 0,120.50401 -97.6845,218.18846 -218.1885,218.18846 z"
         id="path4032-3" />
      <path
         style="fill:#000000;fill-opacity:1"
         id="path6-8-3-6"
         d="m -1168.606,-290.39295 c -0.5973,-103.86937 85.5629,-189.4387 189.9971,-188.77773 102.6464,0.66259 187.2841,85.46769 187.2179,188.91061 -0.033,103.7726 -85.202,188.50389 -189.3724,188.44486 -103.2409,-0.066 -187.8426,-85.00685 -187.8426,-188.57774 z m 113.444,151.58584 0.3311,-0.033 0,-0.32968 c -0.5958,-1.89101 -1.0938,-3.81153 -1.7556,-5.6665 -25.4924,-69.83277 -50.9572,-139.66895 -76.4854,-209.50183 -0.4332,-1.19227 -0.5324,-3.17843 -1.8548,-3.27358 -1.7213,-0.0984 -1.7558,2.01566 -2.2868,3.27358 -9.8334,23.8714 -13.9737,48.84315 -12.12,74.5334 3.5111,48.93819 24.3696,89.27263 62.0854,120.69818 9.7657,8.14793 20.2282,15.33468 32.0861,20.29926 z m 159.9962,-51.09172 c 0.4289,-0.99058 0.8606,-1.65317 1.0592,-2.38298 8.4792,-28.27667 17.0879,-56.48927 25.2331,-84.86089 5.7909,-20.14014 3.8021,-39.83753 -5.3333,-58.74436 -3.3171,-6.81945 -7.3538,-13.17962 -11.2596,-19.63985 -4.4711,-7.38196 -8.5395,-14.93294 -10.1655,-23.57454 -3.51,-18.24254 7.8774,-34.07259 26.1899,-36.48999 0.764,-0.0984 1.6233,0.033 2.1514,-0.83318 0,-1.25474 -1.0575,-1.75162 -1.8533,-2.37819 -38.011,-32.14875 -81.9193,-45.56291 -131.256,-40.06533 -36.3876,4.07226 -68.0147,19.20361 -95.0007,43.90806 -9.0059,8.27748 -16.9193,17.54555 -23.9033,27.58285 -0.5958,0.82497 -1.5917,1.71718 -1.1628,2.77991 0.5324,1.38259 2.0536,0.86109 3.1816,0.89059 3.1778,0.0984 6.3235,0.0491 9.5343,0.0984 13.6426,0.20174 27.2219,-1.28583 40.8314,-1.78441 5.2642,-0.16406 8.1741,2.02226 8.541,6.22409 0.3658,3.94438 -2.4175,6.85387 -7.45,7.55257 -4.0728,0.56093 -8.1468,0.89222 -12.2497,1.25634 -5.7983,0.52811 -5.8613,0.52811 -3.9763,6.12564 19.2709,57.34866 38.5433,114.671 57.8143,172.01956 0.465,1.29234 0.5023,2.88326 2.0565,3.67212 1.1586,-0.76433 1.3526,-1.98614 1.7183,-3.07677 11.4565,-34.27272 22.8801,-68.57327 34.3024,-102.84928 0.6014,-1.78443 0.9598,-3.50483 0.2704,-5.39261 -8.2157,-22.38535 -16.3971,-44.76918 -24.502,-67.15293 -0.8649,-2.37978 -2.3545,-3.1112 -4.769,-3.27849 -4.8673,-0.3297 -9.773,-0.86431 -14.6042,-1.55811 -3.8768,-0.59535 -6.1577,-3.67703 -5.7923,-7.2508 0.393,-3.84431 2.8768,-6.09123 6.8832,-6.29294 0.9267,-0.066 1.8536,0 2.7804,0.066 18.5152,1.08734 37.0207,2.2534 55.562,1.59082 10.5647,-0.40182 21.1246,-1.19229 31.6891,-1.62854 4.4714,-0.1952 7.089,2.12063 7.4818,5.96326 0.4001,3.93947 -1.9845,6.95561 -6.3853,7.6149 -4.3374,0.62816 -8.6762,0.99558 -13.0137,1.3941 -6.1235,0.59535 -6.1578,0.55923 -4.2409,6.25853 19.0753,56.68597 38.1519,113.40146 57.253,170.09565 0.4332,1.33177 0.5627,2.91938 2.3846,4.14119 z m -81.4876,-84.3721 c -1.9585,1.69089 -2.1211,3.35063 -2.6551,4.80378 -4.2023,12.1185 -8.3425,24.30105 -12.513,36.42116 -11.4898,33.41332 -22.9779,66.82165 -34.5384,100.22845 -1.0894,3.14893 -1.5571,5.23513 2.7803,6.32736 32.1222,8.14461 63.9062,7.38198 95.529,-2.55197 3.1804,-1.0234 3.707,-2.31244 2.583,-5.42535 -15.4268,-41.98756 -30.7288,-84.0359 -46.0612,-126.02847 -1.6146,-4.46589 -3.3055,-8.87443 -5.1246,-13.77496 z m 82.9137,128.80669 c 22.7436,-5.49589 62.6123,-54.23407 74.6316,-91.75078 14.6025,-45.4941 10.6983,-89.56467 -10.8291,-132.44445 -1.124,0.92824 -0.9613,1.61543 -0.8937,2.24689 2.3198,21.62441 -1.1916,42.48617 -8.2433,62.84944 -17.7152,51.15557 -35.5312,102.28015 -53.2812,153.4062 -0.6259,1.82545 -1.6476,3.57867 -1.3843,5.6927 z"
         inkscape:connector-curvature="0" />
    </g>
  </g>
</svg>
